<svg xmlns="http://www.w3.org/2000/svg" version="1.1" xmlns:xlink="http://www.w3.org/1999/xlink" xmlns:svgjs="http://svgjs.dev/svgjs" width="1024" height="768" preserveAspectRatio="none" viewBox="0 0 1024 768"><g mask="url(&quot;#SvgjsMask1009&quot;)" fill="none"><rect width="1024" height="768" x="0" y="0" fill="rgba(155, 176, 103, 1)"></rect><path d="M858.12 0C923.79 56.91 904.36 87.43 960 166.4C972 183.43 974.92 182.07 993.39 192C1070.92 233.68 1103.87 211.36 1152 269.62C1183.18 307.36 1152 326.81 1152 384C1152 480 1152 480 1152 576C1152 672 1199.45 730.87 1152 768C1103.45 806 1056.86 731.85 960 726.26C864.86 720.77 860.96 728.32 768 745.85C750.31 749.19 756.39 765.96 738.71 768C660.39 777.04 657.36 768 576 768C488.72 768 482.63 779.28 401.45 768C386.63 765.94 398.84 744.67 384 741.33C294.11 721.07 288.06 721.38 192 720.79C96.06 720.2 52.03 778.22 0 738.98C-43.97 705.82 0 657.49 0 576C0 480 0 480 0 384C0 288 0 288 0 192C0 96 -48 48 0 0C48 -48 96 0 192 0C288 0 288 0 384 0C480 0 480 0 576 0C672 0 672 0 768 0C813.06 0 827.79 -26.29 858.12 0" stroke="rgba(144, 165, 92, 1)" stroke-width="2"></path><path d="M1152 126.86C1119.74 126.86 1039.24 38.11 1039.24 0C1039.24 -25.32 1125.47 -29.85 1152 0C1181.85 33.58 1176.12 126.86 1152 126.86" stroke="rgba(144, 165, 92, 1)" stroke-width="2"></path><path d="M768 333.33C747.27 333.33 725.58 359.73 725.58 384C725.58 405.79 747.19 425.45 768 425.45C788.02 425.45 807.23 405.7 807.23 384C807.23 359.64 788.1 333.33 768 333.33" stroke="rgba(144, 165, 92, 1)" stroke-width="2"></path><path d="M158.61 0C158.61 51.88 45.62 173.71 0 173.71C-33.69 173.71 -41.45 45.4 0 0C37.85 -41.45 158.61 -34.98 158.61 0" stroke="rgba(144, 165, 92, 1)" stroke-width="2"></path><path d="M282.12 192C275.82 105.16 316.46 87.08 362.67 0C367.4 -8.92 373.34 0 384 0C480 0 480 0 576 0C662.86 0 664.64 -5.67 749.71 0C760.64 0.73 761.85 3.58 768 12.8C825.85 99.58 812.76 111.89 877.71 192C908.76 230.29 918 222.08 960 249.6C1055.15 311.95 1060.91 307.98 1152 371.74C1156.91 375.18 1152 377.87 1152 384C1152 480 1152 480 1152 576C1152 624.94 1183.66 666.31 1152 673.88C1087.66 689.26 1055.29 619.32 960 621.91C863.29 624.54 857.69 641.02 768 684.31C706.37 714.06 717.87 741.62 657.36 768C621.87 783.47 616.68 768 576 768C532.37 768 518.81 793.07 488.73 768C422.81 713.07 457.46 639.17 384 608C309.09 576.22 287.67 623.37 192 642.1C95.67 660.95 62.1 704.54 0 683.16C-33.9 671.49 0 629.58 0 576C0 480 0 480 0 384C0 298.66 -41.2 223.96 0 213.33C54.8 199.19 99.71 269.24 192 334.45C220.49 354.58 217.4 358.62 241.55 384C313.4 459.53 325.55 536.28 384 536.28C430.74 536.28 451.94 456.28 451.94 384C451.94 335.08 421.3 336.05 384 293.88C336.39 240.05 286.48 252.1 282.12 192" stroke="rgba(144, 165, 92, 1)" stroke-width="2"></path><path d="M576 107.29C541.37 107.29 505.76 154.15 505.76 192C505.76 221.77 541.17 242.53 576 242.53C609.78 242.53 642.98 221.57 642.98 192C642.98 153.95 609.98 107.29 576 107.29" stroke="rgba(144, 165, 92, 1)" stroke-width="2"></path><path d="M1152 41.14C1141.54 41.14 1115.43 12.36 1115.43 0C1115.43 -8.21 1143.4 -9.68 1152 0C1161.68 10.89 1159.82 41.14 1152 41.14" stroke="rgba(144, 165, 92, 1)" stroke-width="2"></path><path d="M768 266.67C720.01 266.67 669.77 327.79 669.77 384C669.77 434.45 719.82 480 768 480C814.36 480 858.84 434.25 858.84 384C858.84 327.58 814.54 266.67 768 266.67" stroke="rgba(144, 165, 92, 1)" stroke-width="2"></path><path d="M54.26 0C54.26 17.75 15.61 59.43 0 59.43C-11.52 59.43 -14.18 15.53 0 0C12.95 -14.18 54.26 -11.97 54.26 0" stroke="rgba(144, 165, 92, 1)" stroke-width="2"></path><path d="M380.08 192C380.08 188.47 381.9 184.32 384 184.32C386.2 184.32 388.68 188.55 388.68 192C388.68 194.35 386.25 195.92 384 195.92C381.95 195.92 380.08 194.27 380.08 192" stroke="rgba(144, 165, 92, 1)" stroke-width="2"></path><path d="M754.6 192C754.6 183.84 761.59 172.8 768 172.8C774.17 172.8 779.76 183.67 779.76 192C779.76 197.27 774 200 768 200C761.42 200 754.6 197.44 754.6 192" stroke="rgba(144, 165, 92, 1)" stroke-width="2"></path><path d="M0 346.67C18.01 346.67 36.85 357.15 56 384C118.63 471.81 179.3 507.6 163.56 576C151.3 629.28 62.93 627.35 0 627.35C-18.85 627.35 0 601.67 0 576C0 480 0 480 0 384C0 365.34 -9.99 346.67 0 346.67" stroke="rgba(144, 165, 92, 1)" stroke-width="2"></path><path d="M525.78 384C535.74 348.74 552.82 326.74 576 326.74C596.91 326.74 590.74 358.88 613.95 384C686.74 462.78 682.54 472.54 768 534.55C814.84 568.54 878.55 554.13 878.55 576C878.55 598.24 818.33 590.83 768 622.77C667.06 686.83 646.94 780.64 576 768C515.74 757.26 518.52 674.76 505.6 576C493.41 482.76 500.54 473.37 525.78 384" stroke="rgba(144, 165, 92, 1)" stroke-width="2"></path><path d="M910.45 384C910.45 347.88 929.5 318.17 960 318.17C1004.36 318.17 1060.17 343.54 1060.17 384C1060.17 437.09 1000.84 505.26 960 505.26C925.98 505.26 910.45 441.42 910.45 384" stroke="rgba(144, 165, 92, 1)" stroke-width="2"></path><path d="M1139.2 576C1139.2 572.77 1147.86 567.65 1152 567.65C1154.26 567.65 1152 571.83 1152 576C1152 577.88 1153.41 579.76 1152 579.76C1147.01 579.76 1139.2 578.82 1139.2 576" stroke="rgba(144, 165, 92, 1)" stroke-width="2"></path></g><defs><mask id="SvgjsMask1009"><rect width="1024" height="768" fill="#ffffff"></rect></mask></defs></svg>