<svg xmlns="http://www.w3.org/2000/svg" version="1.1" xmlns:xlink="http://www.w3.org/1999/xlink" xmlns:svgjs="http://svgjs.dev/svgjs" width="1024" height="768" preserveAspectRatio="none" viewBox="0 0 1024 768"><g mask="url(&quot;#SvgjsMask1010&quot;)" fill="none"><rect width="1024" height="768" x="0" y="0" fill="rgba(54, 113, 91, 1)"></rect><path d="M192 122.67C152.56 122.67 105.93 162.4 105.93 192C105.93 217.52 150.82 232.92 192 232.92C222.22 232.92 248.73 216.17 248.73 192C248.73 161.05 223.96 122.67 192 122.67" stroke="rgba(93, 85, 80, 1)" stroke-width="2"></path><path d="M931.9 0C951.58 3.23 941.41 22.17 960 31.56C1051.46 77.75 1082.88 53.4 1152 111.16C1178.88 133.62 1152 151.58 1152 192C1152 288 1152 288 1152 384C1152 476.51 1155.37 477.93 1152 569.02C1151.82 573.93 1146.36 571.27 1144.89 576C1115.39 670.76 1146.04 709.87 1090.06 768C1053.6 805.87 1025.03 768 960 768C864 768 864 768 768 768C672 768 672 768 576 768C480 768 480 768 384 768C288 768 288 768 192 768C96 768 56.18 807.82 0 768C-39.82 739.77 -20.63 690.21 0 631.9C13.34 594.21 61.55 614.69 67.94 576C82.01 490.74 63.7 477.22 40.92 384C29.73 338.18 9.69 343.39 0 297.93C-10.77 247.39 0 244.97 0 192C0 96 -48 48 0 0C48 -48 96 0 192 0C288 0 288 0 384 0C480 0 480 0 576 0C672 0 672 0 768 0C849.95 0 855.58 -12.55 931.9 0" stroke="rgba(93, 85, 80, 1)" stroke-width="2"></path><path d="M576 339.54C504.31 339.54 430.34 356.39 430.34 384C430.34 413.24 505.54 453.25 576 453.25C631.17 453.25 681.6 413.81 681.6 384C681.6 356.95 629.94 339.54 576 339.54" stroke="rgba(93, 85, 80, 1)" stroke-width="2"></path><path d="M960 342.15C916.64 342.15 866.74 361.97 866.74 384C866.74 406.54 917.22 431.3 960 431.3C987.17 431.3 1006.63 406.94 1006.63 384C1006.63 362.36 986.58 342.15 960 342.15" stroke="rgba(93, 85, 80, 1)" stroke-width="2"></path><path d="M384 451.2C360.74 451.2 338.62 517.33 338.62 576C338.62 608.1 360.92 632.73 384 632.73C407.61 632.73 432 608.42 432 576C432 517.66 407.43 451.2 384 451.2" stroke="rgba(93, 85, 80, 1)" stroke-width="2"></path><path d="M168 0C168 32.09 53.47 116.87 0 116.87C-30.53 116.87 -34.46 23.97 0 0C49.54 -34.46 168 -26.34 168 0" stroke="rgba(93, 85, 80, 1)" stroke-width="2"></path><path d="M357.82 192C357.82 169.62 364.44 163.89 384 147.69C473.53 73.54 480.67 80.31 576 11.29C582.67 6.46 579.95 0.47 588 0C675.95 -5.17 678 0 768 0C820.68 0 830.45 -21.76 873.37 0C926.45 26.9 909.63 57.07 960 97.32C1029.75 153.07 1041.69 139.05 1113.6 192C1137.69 209.74 1146.36 210.49 1152 238.7C1165.56 306.49 1152 311.35 1152 384C1152 432.88 1168.9 481.75 1152 481.75C1130.5 481.75 1117.96 428.79 1075.2 384C1021.96 328.23 1020.41 328.78 960 280.62C899.98 232.78 895.53 238.41 834.33 192C799.53 165.6 799.76 135 768 135C739.37 135 744.17 167.44 713.55 192C648.17 244.44 651.68 277.99 576 289.01C486.9 301.99 469.5 278.02 384 240C360.41 229.51 357.82 215.78 357.82 192" stroke="rgba(93, 85, 80, 1)" stroke-width="2"></path><path d="M119.61 384C128.3 338.22 152.29 311.61 192 311.61C242.34 311.61 287.96 331.66 299.71 384C317.64 463.85 231.01 489.67 251.35 576C273.16 668.58 316.53 741.82 384 741.82C453.01 741.82 451.18 655.95 524.31 576C547.18 551 545.81 531.93 576 531.93C638.86 531.93 646.42 547.61 710.4 576C742.42 590.21 741.75 617.14 768 617.14C788.01 617.14 780.2 589.75 802.91 576C876.2 531.62 885.56 500.87 960 500.87C1012.11 500.87 1045.93 524.92 1056 576C1072.26 658.48 1050.52 692.26 1012.65 768C1002.52 788.26 986.33 768 960 768C864 768 864 768 768 768C672 768 672 768 576 768C480 768 480 768 384 768C288 768 288 768 192 768C96 768 68.95 795.05 0 768C-27.05 757.38 -20.63 720.59 0 692.66C50.26 624.59 112.64 651.19 141.78 576C172.45 496.86 103.19 470.42 119.61 384" stroke="rgba(93, 85, 80, 1)" stroke-width="2"></path><path d="M470.86 192C470.86 155.92 528.46 105.41 576 105.41C613.98 105.41 641.91 153.79 641.91 192C641.91 220.32 611.26 238.48 576 238.48C525.74 238.48 470.86 222.45 470.86 192" stroke="rgba(93, 85, 80, 1)" stroke-width="2"></path><path d="M768 60C731.99 60 688 16.67 688 0C688 -13.33 728 0 768 0C791.41 0 814.83 -11.43 814.83 0C814.83 18.57 795.41 60 768 60" stroke="rgba(93, 85, 80, 1)" stroke-width="2"></path><path d="M921.6 192C921.6 177.84 940.13 163.07 960 163.07C982.79 163.07 1006.93 177.88 1006.93 192C1006.93 205.88 982.85 219.08 960 219.08C940.18 219.08 921.6 205.84 921.6 192" stroke="rgba(93, 85, 80, 1)" stroke-width="2"></path><path d="M1143.77 384C1143.77 376.59 1149.82 368.43 1152 368.43C1153.93 368.43 1152 376.22 1152 384C1152 389.24 1153.81 394.47 1152 394.47C1149.7 394.47 1143.77 389.61 1143.77 384" stroke="rgba(93, 85, 80, 1)" stroke-width="2"></path><path d="M948.36 576C948.36 570.65 954.49 570.43 960 570.43C963.86 570.43 967.11 571.87 967.11 576C967.11 593.86 964.62 614.4 960 614.4C955.25 614.4 948.36 592.64 948.36 576" stroke="rgba(93, 85, 80, 1)" stroke-width="2"></path><path d="M0 753.42C18.6 753.42 48 764.27 48 768C48 771.56 18.41 773.59 0 768C-5.59 766.3 -5.4 753.42 0 753.42" stroke="rgba(93, 85, 80, 1)" stroke-width="2"></path></g><defs><mask id="SvgjsMask1010"><rect width="1024" height="768" fill="#ffffff"></rect></mask></defs></svg>