<svg xmlns="http://www.w3.org/2000/svg" version="1.1" xmlns:xlink="http://www.w3.org/1999/xlink" xmlns:svgjs="http://svgjs.dev/svgjs" width="1024" height="768" preserveAspectRatio="none" viewBox="0 0 1024 768"><g mask="url(&quot;#SvgjsMask1003&quot;)" fill="none"><rect width="1024" height="768" x="0" y="0" fill="rgba(239, 136, 52, 1)"></rect><path d="M19.44 192C19.44 179.68 1.48 183.35 0 168.73C-8.24 87.35 -44.9 39.46 0 0C51.1 -44.9 96 0 192 0C288 0 288 0 384 0C480 0 480 0 576 0C672 0 672 0 768 0C843.04 0 884.04 -42.11 918.07 0C961.63 53.89 921.17 95.99 923.18 192C925.19 287.99 913.74 290.13 926.12 384C932.15 429.76 939.51 471.27 960 471.27C982.17 471.27 1005.34 432.12 1011.43 384C1023.02 292.48 997.5 288.13 995.37 192C993.25 96.13 958.82 54.06 1002.92 0C1037.14 -41.94 1119.42 -41.96 1152 0C1193.96 54.04 1152 96 1152 192C1152 288 1152 288 1152 384C1152 480 1152 480 1152 576C1152 672 1200 720 1152 768C1104 816 1056 768 960 768C864 768 864 768 768 768C672 768 672 768 576 768C501.88 768 496.78 781.65 427.75 768C400.78 762.66 408.23 730.02 384 730.02C348.79 730.02 349.07 760.05 308.87 768C253.07 779.04 250.44 768 192 768C96 768 48 816 0 768C-48 720 0 672 0 576C0 480 0 480 0 384C0 303.67 -7.9 301.42 0 223.35C1.82 205.42 19.44 206.99 19.44 192" stroke="rgba(241, 121, 34, 1)" stroke-width="2"></path><path d="M576 129.73C510.87 129.73 432 160.5 432 192C432 223.64 511.12 256 576 256C610.88 256 631.52 223.81 631.52 192C631.52 160.68 610.63 129.73 576 129.73" stroke="rgba(241, 121, 34, 1)" stroke-width="2"></path><path d="M192 345.17C161.39 362.37 133.42 363.1 133.42 384C133.42 406.52 156.56 425.71 192 432C281.85 447.94 293.25 445.72 384 428.46C419.42 421.72 444.34 414.43 444.34 384C444.34 321.8 436.15 251.23 384 243.2C309.98 231.81 286.68 291.97 192 345.17" stroke="rgba(241, 121, 34, 1)" stroke-width="2"></path><path d="M80.2 192C36.47 147.53 22.69 150.32 0 96C-17.41 54.32 -32 16 0 0C64 -32 96 0 192 0C288 0 288 0 384 0C480 0 480 0 576 0C672 0 672 0 768 0C815.45 0 848.11 -31.75 862.9 0C892.82 64.25 855.73 96.08 857.42 192C859.11 288.08 891.71 294.85 869.65 384C847 475.55 827.76 478.91 768 553.41C750.75 574.91 724.17 551.56 715.64 576C686.74 658.85 736.62 708.22 693.15 768C666.8 804.22 634.58 768 576 768C532.26 768 525.69 785.57 488.51 768C429.69 740.21 441.88 677.27 384 677.27C299.89 677.27 294.89 725.29 204.52 768C198.89 770.66 198.26 768 192 768C96 768 68.57 795.43 0 768C-27.43 757.03 -3.57 729.32 0 691.2C5.43 633.32 -18.46 612.56 18 576C77.54 516.3 101.12 522.76 192 498.67C284.12 474.25 296.3 510.33 384 478.99C456.76 452.99 450.95 434.44 512.91 384C546.95 356.28 546.26 355.04 576 322.67C634.48 259.04 689.35 256.95 689.35 192C689.35 128.05 647.01 85.37 576 64.86C494.33 41.26 464.08 62.02 384 103.78C342.18 125.59 368.03 157.01 332.19 192C272.03 250.74 259.36 291.24 192 291.24C133.37 291.24 132.47 245.15 80.2 192" stroke="rgba(241, 121, 34, 1)" stroke-width="2"></path><path d="M1058.53 192C1049.19 96.95 1027.86 64.76 1059.39 0C1074.6 -31.24 1136.93 -31.24 1152 0C1183.24 64.76 1152 96 1152 192C1152 288 1152 288 1152 384C1152 480 1152 480 1152 576C1152 609.6 1164.87 613.5 1152 643.2C1123.27 709.5 1124.44 731.83 1068.8 768C1028.44 794.23 1014.4 768 960 768C919.2 768 878.4 791.1 878.4 768C878.4 723.1 907.79 688.45 960 632C996.59 592.45 1031.22 620.82 1056 576C1099.79 496.82 1096.51 480.13 1097.14 384C1097.77 288.13 1068.06 288.95 1058.53 192" stroke="rgba(241, 121, 34, 1)" stroke-width="2"></path><path d="M0 321.31C14.72 321.31 52.07 347.63 52.07 384C52.07 459.81 13.34 545.68 0 545.68C-12.7 545.68 0 464.84 0 384C0 352.65 -11.32 321.31 0 321.31" stroke="rgba(241, 121, 34, 1)" stroke-width="2"></path><path d="M140.96 192C140.96 126.57 163.69 48 192 48C221.21 48 256 128.8 256 192C256 223.45 222.75 237.3 192 237.3C165.23 237.3 140.96 221.22 140.96 192" stroke="rgba(241, 121, 34, 1)" stroke-width="2"></path><path d="M102.4 0C102.4 5.89 41.91 23.27 0 23.27C-9.29 23.27 -9.48 2.15 0 0C41.72 -9.48 102.4 -5.74 102.4 0" stroke="rgba(241, 121, 34, 1)" stroke-width="2"></path><path d="M747.18 192C742.72 93.85 570.04 54.97 576 0C580.45 -41.03 672 0 768 0C787.86 0 805.7 -16.41 807.72 0C817.53 79.59 790.31 96.13 791.67 192C793.04 288.13 821.32 292.11 813.18 384C809.48 425.76 802.71 459.29 768 459.29C692.85 459.29 597.99 442.26 593.45 384C587.58 308.62 751.44 285.85 747.18 192" stroke="rgba(241, 121, 34, 1)" stroke-width="2"></path><path d="M1121.68 192C1110.33 97.27 1103.1 80.8 1115.86 0C1118.26 -15.2 1149.14 -15.21 1152 0C1167.21 80.79 1152 96 1152 192C1152 246.86 1159.44 301.71 1152 301.71C1144.28 301.71 1128.4 248.13 1121.68 192" stroke="rgba(241, 121, 34, 1)" stroke-width="2"></path><path d="M168 576C168 567.79 179.2 568.08 192 565.33C287.2 544.84 289.47 526.46 384 529.52C454.47 531.8 522 552.3 522 576C522 599.81 455.15 618.16 384 624.53C290.15 632.93 282.21 625.81 192 605.54C174.21 601.54 168 587.9 168 576" stroke="rgba(241, 121, 34, 1)" stroke-width="2"></path><path d="M549.27 768C549.27 725.6 560.55 662.4 576 662.4C591.81 662.4 611.8 728.03 611.8 768C611.8 780.83 593.9 768 576 768C562.63 768 549.27 778.4 549.27 768" stroke="rgba(241, 121, 34, 1)" stroke-width="2"></path></g><defs><mask id="SvgjsMask1003"><rect width="1024" height="768" fill="#ffffff"></rect></mask></defs></svg>