<svg xmlns="http://www.w3.org/2000/svg" version="1.1" xmlns:xlink="http://www.w3.org/1999/xlink" xmlns:svgjs="http://svgjs.dev/svgjs" width="1024" height="678" preserveAspectRatio="none" viewBox="0 0 1024 678"><g mask="url(&quot;#SvgjsMask1009&quot;)" fill="none"><rect width="1024" height="678" x="0" y="0" fill="rgba(54, 113, 91, 1)"></rect><path d="M728.28 395.29L728.28 397.94L738.22 397.94L738.22 395.29zM733.53 396.62 a4.69 4.69 0 1 0 9.38 0 a4.69 4.69 0 1 0 -9.38 0zM724.94 414.76L723.92 417.21L735.7 422.09L736.72 419.64zM731.52 420.86 a4.69 4.69 0 1 0 9.38 0 a4.69 4.69 0 1 0 -9.38 0zM714.4 431.47L712.52 433.34L721.3 442.12L723.18 440.25zM717.55 441.19 a4.69 4.69 0 1 0 9.38 0 a4.69 4.69 0 1 0 -9.38 0zM698.26 442.87L695.82 443.88L699.01 451.6L701.46 450.58zM695.55 451.09 a4.69 4.69 0 1 0 9.38 0 a4.69 4.69 0 1 0 -9.38 0zM679 447.23L676.35 447.23L676.35 470.13L679 470.13zM672.98 470.13 a4.69 4.69 0 1 0 9.38 0 a4.69 4.69 0 1 0 -9.38 0zM659.53 443.88L657.08 442.87L650.58 458.55L653.03 459.57zM647.12 459.06 a4.69 4.69 0 1 0 9.38 0 a4.69 4.69 0 1 0 -9.38 0zM642.82 433.34L640.95 431.47L631.06 441.35L632.94 443.23zM627.31 442.29 a4.69 4.69 0 1 0 9.38 0 a4.69 4.69 0 1 0 -9.38 0zM631.42 417.21L630.41 414.76L622.36 418.09L623.38 420.54zM618.18 419.32 a4.69 4.69 0 1 0 9.38 0 a4.69 4.69 0 1 0 -9.38 0zM627.06 397.94L627.06 395.29L607.18 395.29L607.18 397.94zM602.49 396.62 a4.69 4.69 0 1 0 9.38 0 a4.69 4.69 0 1 0 -9.38 0zM630.41 378.47L631.42 376.03L613.93 368.78L612.92 371.23zM608.74 370.01 a4.69 4.69 0 1 0 9.38 0 a4.69 4.69 0 1 0 -9.38 0zM640.95 361.77L642.82 359.89L631.14 348.21L629.26 350.08zM625.51 349.14 a4.69 4.69 0 1 0 9.38 0 a4.69 4.69 0 1 0 -9.38 0zM657.08 350.37L659.53 349.35L651.89 330.91L649.44 331.93zM645.98 331.42 a4.69 4.69 0 1 0 9.38 0 a4.69 4.69 0 1 0 -9.38 0zM676.35 346.01L679 346.01L679 332.2L676.35 332.2zM672.98 332.2 a4.69 4.69 0 1 0 9.38 0 a4.69 4.69 0 1 0 -9.38 0zM695.82 349.35L698.26 350.37L702.56 339.99L700.11 338.98zM696.65 339.49 a4.69 4.69 0 1 0 9.38 0 a4.69 4.69 0 1 0 -9.38 0zM712.52 359.89L714.4 361.77L721.01 355.15L719.14 353.28zM715.39 354.21 a4.69 4.69 0 1 0 9.38 0 a4.69 4.69 0 1 0 -9.38 0zM723.92 376.03L724.94 378.47L743.82 370.65L742.81 368.2zM738.62 369.43 a4.69 4.69 0 1 0 9.38 0 a4.69 4.69 0 1 0 -9.38 0zM627.04 396.62 a50.63 50.63 0 1 0 101.26 0 a50.63 50.63 0 1 0 -101.26 0z" fill="rgba(93, 85, 80, 1)"></path><path d="M662.58 348.29 A49.62656 49.62656 0 0 1 727.09 407.61M727.09 407.61 A101.25312 101.25312 0 0 0 662.58 348.29" fill="#4a4440" fill-rule="nonzero"></path><path d="M648.72 434.98 a5.06 5.06 0 1 0 10.12 0 a5.06 5.06 0 1 0 -10.12 0zM667.47 426.6 a4.05 4.05 0 1 0 8.1 0 a4.05 4.05 0 1 0 -8.1 0zM629.97 412.34 a6.08 6.08 0 1 0 12.16 0 a6.08 6.08 0 1 0 -12.16 0zM674.65 372.96 a10.13 10.13 0 1 0 20.26 0 a10.13 10.13 0 1 0 -20.26 0zM702.04 417.51 a10.13 10.13 0 1 0 20.26 0 a10.13 10.13 0 1 0 -20.26 0zM644.58 360.97 a4.56 4.56 0 1 0 9.12 0 a4.56 4.56 0 1 0 -9.12 0zM681.56 438.12 a3.54 3.54 0 1 0 7.08 0 a3.54 3.54 0 1 0 -7.08 0zM705.33 374.84 a7.59 7.59 0 1 0 15.18 0 a7.59 7.59 0 1 0 -15.18 0zM663.59 356.95 a3.54 3.54 0 1 0 7.08 0 a3.54 3.54 0 1 0 -7.08 0zM698.65 356.44 a2.53 2.53 0 1 0 5.06 0 a2.53 2.53 0 1 0 -5.06 0z" fill="#4a4440" fill-rule="nonzero"></path><path d="M270.8 114.12L270.8 116.77L294.64 116.77L294.64 114.12zM289.95 115.45 a4.69 4.69 0 1 0 9.38 0 a4.69 4.69 0 1 0 -9.38 0zM267.45 133.59L266.44 136.04L285.28 143.84L286.29 141.39zM281.09 142.62 a4.69 4.69 0 1 0 9.38 0 a4.69 4.69 0 1 0 -9.38 0zM256.91 150.3L255.04 152.17L272.72 169.85L274.6 167.98zM268.97 168.92 a4.69 4.69 0 1 0 9.38 0 a4.69 4.69 0 1 0 -9.38 0zM240.78 161.7L238.33 162.71L241.08 169.34L243.53 168.33zM237.61 168.84 a4.69 4.69 0 1 0 9.38 0 a4.69 4.69 0 1 0 -9.38 0zM221.51 166.06L218.86 166.06L218.86 172.34L221.51 172.34zM215.5 172.34 a4.69 4.69 0 1 0 9.38 0 a4.69 4.69 0 1 0 -9.38 0zM202.05 162.71L199.6 161.7L194.93 172.96L197.38 173.97zM191.47 173.47 a4.69 4.69 0 1 0 9.38 0 a4.69 4.69 0 1 0 -9.38 0zM185.34 152.17L183.46 150.3L172 161.77L173.87 163.64zM168.24 162.7 a4.69 4.69 0 1 0 9.38 0 a4.69 4.69 0 1 0 -9.38 0zM173.94 136.04L172.92 133.59L151.44 142.49L152.46 144.94zM147.26 143.71 a4.69 4.69 0 1 0 9.38 0 a4.69 4.69 0 1 0 -9.38 0zM169.58 116.77L169.58 114.12L162.8 114.12L162.8 116.77zM158.11 115.45 a4.69 4.69 0 1 0 9.38 0 a4.69 4.69 0 1 0 -9.38 0zM172.92 97.3L173.94 94.86L154.55 86.82L153.53 89.27zM149.35 88.05 a4.69 4.69 0 1 0 9.38 0 a4.69 4.69 0 1 0 -9.38 0zM183.46 80.6L185.34 78.72L175.49 68.87L173.61 70.75zM169.86 69.81 a4.69 4.69 0 1 0 9.38 0 a4.69 4.69 0 1 0 -9.38 0zM199.6 69.2L202.05 68.18L194.26 49.39L191.81 50.41zM188.35 49.9 a4.69 4.69 0 1 0 9.38 0 a4.69 4.69 0 1 0 -9.38 0zM218.86 64.84L221.51 64.84L221.51 52.15L218.86 52.15zM215.5 52.15 a4.69 4.69 0 1 0 9.38 0 a4.69 4.69 0 1 0 -9.38 0zM238.33 68.18L240.78 69.2L245.16 58.63L242.71 57.61zM239.24 58.12 a4.69 4.69 0 1 0 9.38 0 a4.69 4.69 0 1 0 -9.38 0zM255.04 78.72L256.91 80.6L265.38 72.13L263.51 70.25zM259.76 71.19 a4.69 4.69 0 1 0 9.38 0 a4.69 4.69 0 1 0 -9.38 0zM266.44 94.86L267.45 97.3L283.15 90.8L282.13 88.35zM277.95 89.58 a4.69 4.69 0 1 0 9.38 0 a4.69 4.69 0 1 0 -9.38 0zM169.56 115.45 a50.63 50.63 0 1 0 101.26 0 a50.63 50.63 0 1 0 -101.26 0z" fill="rgba(93, 85, 80, 1)"></path><path d="M254.16 77.91 A49.62656 49.62656 0 0 1 235.82 163.6M235.82 163.6 A101.25312 101.25312 0 0 0 254.16 77.91" fill="#4a4440" fill-rule="nonzero"></path><path d="M229.69 72.32 a5.06 5.06 0 1 0 10.12 0 a5.06 5.06 0 1 0 -10.12 0zM232.31 117.76 a10.13 10.13 0 1 0 20.26 0 a10.13 10.13 0 1 0 -20.26 0zM201.9 140.04 a10.13 10.13 0 1 0 20.26 0 a10.13 10.13 0 1 0 -20.26 0zM188.5 151.53 a3.04 3.04 0 1 0 6.08 0 a3.04 3.04 0 1 0 -6.08 0zM232.87 92.38 a4.56 4.56 0 1 0 9.12 0 a4.56 4.56 0 1 0 -9.12 0zM209.51 112.06 a6.58 6.58 0 1 0 13.16 0 a6.58 6.58 0 1 0 -13.16 0zM190.17 79.46 a8.61 8.61 0 1 0 17.22 0 a8.61 8.61 0 1 0 -17.22 0zM177.49 104.21 a8.61 8.61 0 1 0 17.22 0 a8.61 8.61 0 1 0 -17.22 0zM229.97 150.71 a5.57 5.57 0 1 0 11.14 0 a5.57 5.57 0 1 0 -11.14 0zM254.59 147.56 a2.03 2.03 0 1 0 4.06 0 a2.03 2.03 0 1 0 -4.06 0z" fill="#4a4440" fill-rule="nonzero"></path><path d="M921.71 206.74L921.71 209.39L944.91 209.39L944.91 206.74zM940.22 208.06 a4.69 4.69 0 1 0 9.38 0 a4.69 4.69 0 1 0 -9.38 0zM918.36 226.21L917.35 228.66L935.93 236.35L936.94 233.9zM931.74 235.13 a4.69 4.69 0 1 0 9.38 0 a4.69 4.69 0 1 0 -9.38 0zM907.82 242.91L905.95 244.79L920.13 258.97L922 257.1zM916.38 258.03 a4.69 4.69 0 1 0 9.38 0 a4.69 4.69 0 1 0 -9.38 0zM891.69 254.31L889.24 255.33L897.84 276.1L900.29 275.08zM894.38 275.59 a4.69 4.69 0 1 0 9.38 0 a4.69 4.69 0 1 0 -9.38 0zM872.42 258.67L869.77 258.67L869.77 274.08L872.42 274.08zM866.41 274.08 a4.69 4.69 0 1 0 9.38 0 a4.69 4.69 0 1 0 -9.38 0zM852.95 255.33L850.51 254.31L846.4 264.23L848.85 265.24zM842.93 264.73 a4.69 4.69 0 1 0 9.38 0 a4.69 4.69 0 1 0 -9.38 0zM836.25 244.79L834.37 242.91L829.71 247.58L831.58 249.45zM825.95 248.52 a4.69 4.69 0 1 0 9.38 0 a4.69 4.69 0 1 0 -9.38 0zM824.85 228.66L823.83 226.21L812.57 230.87L813.59 233.32zM808.39 232.1 a4.69 4.69 0 1 0 9.38 0 a4.69 4.69 0 1 0 -9.38 0zM820.49 209.39L820.49 206.74L812.16 206.74L812.16 209.39zM807.47 208.06 a4.69 4.69 0 1 0 9.38 0 a4.69 4.69 0 1 0 -9.38 0zM823.83 189.92L824.85 187.47L804.75 179.15L803.74 181.6zM799.56 180.37 a4.69 4.69 0 1 0 9.38 0 a4.69 4.69 0 1 0 -9.38 0zM834.37 173.21L836.25 171.34L825.21 160.3L823.34 162.18zM819.58 161.24 a4.69 4.69 0 1 0 9.38 0 a4.69 4.69 0 1 0 -9.38 0zM850.51 161.81L852.95 160.8L845.19 142.06L842.74 143.08zM839.28 142.57 a4.69 4.69 0 1 0 9.38 0 a4.69 4.69 0 1 0 -9.38 0zM869.77 157.45L872.42 157.45L872.42 134.43L869.77 134.43zM866.41 134.43 a4.69 4.69 0 1 0 9.38 0 a4.69 4.69 0 1 0 -9.38 0zM889.24 160.8L891.69 161.81L898.09 146.37L895.64 145.35zM892.17 145.86 a4.69 4.69 0 1 0 9.38 0 a4.69 4.69 0 1 0 -9.38 0zM905.95 171.34L907.82 173.21L918.75 162.29L916.87 160.42zM913.12 161.35 a4.69 4.69 0 1 0 9.38 0 a4.69 4.69 0 1 0 -9.38 0zM917.35 187.47L918.36 189.92L937.19 182.12L936.18 179.67zM931.99 180.9 a4.69 4.69 0 1 0 9.38 0 a4.69 4.69 0 1 0 -9.38 0zM820.47 208.06 a50.63 50.63 0 1 0 101.26 0 a50.63 50.63 0 1 0 -101.26 0z" fill="rgba(93, 85, 80, 1)"></path><path d="M921.42 202.57 A49.62656 49.62656 0 0 1 850.79 254.44M850.79 254.44 A101.25312 101.25312 0 0 0 921.42 202.57" fill="#4a4440" fill-rule="nonzero"></path><path d="M873.75 197.05 a10.13 10.13 0 1 0 20.26 0 a10.13 10.13 0 1 0 -20.26 0zM906.97 236.62 a2.53 2.53 0 1 0 5.06 0 a2.53 2.53 0 1 0 -5.06 0zM827.75 191.36 a10.13 10.13 0 1 0 20.26 0 a10.13 10.13 0 1 0 -20.26 0zM844.71 232.1 a10.13 10.13 0 1 0 20.26 0 a10.13 10.13 0 1 0 -20.26 0zM912.76 214.36 a4.05 4.05 0 1 0 8.1 0 a4.05 4.05 0 1 0 -8.1 0zM890.09 225.43 a5.06 5.06 0 1 0 10.12 0 a5.06 5.06 0 1 0 -10.12 0zM874.52 237.98 a4.05 4.05 0 1 0 8.1 0 a4.05 4.05 0 1 0 -8.1 0zM863.35 161.33 a3.54 3.54 0 1 0 7.08 0 a3.54 3.54 0 1 0 -7.08 0zM858.16 189.44 a2.53 2.53 0 1 0 5.06 0 a2.53 2.53 0 1 0 -5.06 0zM825.32 228.52 a2.53 2.53 0 1 0 5.06 0 a2.53 2.53 0 1 0 -5.06 0z" fill="#4a4440" fill-rule="nonzero"></path><path d="M967.48 449.37L967.48 452.02L974.37 452.02L974.37 449.37zM969.68 450.7 a4.69 4.69 0 1 0 9.38 0 a4.69 4.69 0 1 0 -9.38 0zM964.13 468.84L963.12 471.29L982.94 479.5L983.95 477.05zM978.75 478.27 a4.69 4.69 0 1 0 9.38 0 a4.69 4.69 0 1 0 -9.38 0zM953.59 485.55L951.72 487.42L956.59 492.29L958.47 490.42zM952.84 491.35 a4.69 4.69 0 1 0 9.38 0 a4.69 4.69 0 1 0 -9.38 0zM937.46 496.95L935.01 497.96L943.68 518.89L946.13 517.87zM940.22 518.38 a4.69 4.69 0 1 0 9.38 0 a4.69 4.69 0 1 0 -9.38 0zM918.2 501.31L915.55 501.31L915.55 524.82L918.2 524.82zM912.18 524.82 a4.69 4.69 0 1 0 9.38 0 a4.69 4.69 0 1 0 -9.38 0zM898.73 497.96L896.28 496.95L890.1 511.86L892.55 512.87zM886.64 512.37 a4.69 4.69 0 1 0 9.38 0 a4.69 4.69 0 1 0 -9.38 0zM882.02 487.42L880.15 485.55L867.88 497.81L869.75 499.69zM864.13 498.75 a4.69 4.69 0 1 0 9.38 0 a4.69 4.69 0 1 0 -9.38 0zM870.62 471.29L869.61 468.84L862.16 471.92L863.17 474.37zM857.98 473.15 a4.69 4.69 0 1 0 9.38 0 a4.69 4.69 0 1 0 -9.38 0zM866.26 452.02L866.26 449.37L846.6 449.37L846.6 452.02zM841.91 450.7 a4.69 4.69 0 1 0 9.38 0 a4.69 4.69 0 1 0 -9.38 0zM869.61 432.55L870.62 430.11L863.3 427.07L862.29 429.52zM858.11 428.3 a4.69 4.69 0 1 0 9.38 0 a4.69 4.69 0 1 0 -9.38 0zM880.15 415.85L882.02 413.97L868.83 400.78L866.95 402.65zM863.2 401.72 a4.69 4.69 0 1 0 9.38 0 a4.69 4.69 0 1 0 -9.38 0zM896.28 404.45L898.73 403.43L889.78 381.83L887.33 382.85zM883.87 382.34 a4.69 4.69 0 1 0 9.38 0 a4.69 4.69 0 1 0 -9.38 0zM915.55 400.09L918.2 400.09L918.2 377.8L915.55 377.8zM912.18 377.8 a4.69 4.69 0 1 0 9.38 0 a4.69 4.69 0 1 0 -9.38 0zM935.01 403.43L937.46 404.45L946.1 383.6L943.65 382.58zM940.18 383.09 a4.69 4.69 0 1 0 9.38 0 a4.69 4.69 0 1 0 -9.38 0zM951.72 413.97L953.59 415.85L961.78 407.66L959.91 405.79zM956.15 406.72 a4.69 4.69 0 1 0 9.38 0 a4.69 4.69 0 1 0 -9.38 0zM963.12 430.11L964.13 432.55L973.36 428.73L972.35 426.28zM968.17 427.51 a4.69 4.69 0 1 0 9.38 0 a4.69 4.69 0 1 0 -9.38 0zM866.24 450.7 a50.63 50.63 0 1 0 101.26 0 a50.63 50.63 0 1 0 -101.26 0z" fill="rgba(93, 85, 80, 1)"></path><path d="M908.79 400.72 A49.62656 49.62656 0 0 1 964.23 468.59M964.23 468.59 A101.25312 101.25312 0 0 0 908.79 400.72" fill="#4a4440" fill-rule="nonzero"></path><path d="M910.51 482.89 a10.13 10.13 0 1 0 20.26 0 a10.13 10.13 0 1 0 -20.26 0zM888.69 489.52 a5.57 5.57 0 1 0 11.14 0 a5.57 5.57 0 1 0 -11.14 0zM932.01 410.9 a5.57 5.57 0 1 0 11.14 0 a5.57 5.57 0 1 0 -11.14 0zM866.66 449.21 a9.62 9.62 0 1 0 19.24 0 a9.62 9.62 0 1 0 -19.24 0zM883.53 416.8 a8.1 8.1 0 1 0 16.2 0 a8.1 8.1 0 1 0 -16.2 0zM954.15 451.88 a6.58 6.58 0 1 0 13.16 0 a6.58 6.58 0 1 0 -13.16 0zM936.58 440.42 a5.06 5.06 0 1 0 10.12 0 a5.06 5.06 0 1 0 -10.12 0zM944.45 488.13 a2.53 2.53 0 1 0 5.06 0 a2.53 2.53 0 1 0 -5.06 0zM889.2 471.41 a2.53 2.53 0 1 0 5.06 0 a2.53 2.53 0 1 0 -5.06 0zM908.06 426.69 a4.56 4.56 0 1 0 9.12 0 a4.56 4.56 0 1 0 -9.12 0z" fill="#4a4440" fill-rule="nonzero"></path><path d="M384.88 417.83L384.88 420.48L409.79 420.48L409.79 417.83zM405.1 419.15 a4.69 4.69 0 1 0 9.38 0 a4.69 4.69 0 1 0 -9.38 0zM381.54 437.29L380.52 439.74L388.3 442.97L389.31 440.52zM384.12 441.74 a4.69 4.69 0 1 0 9.38 0 a4.69 4.69 0 1 0 -9.38 0zM370.99 454L369.12 455.88L375.69 462.44L377.56 460.57zM371.94 461.51 a4.69 4.69 0 1 0 9.38 0 a4.69 4.69 0 1 0 -9.38 0zM354.86 465.4L352.41 466.42L359.69 483.97L362.13 482.96zM356.22 483.46 a4.69 4.69 0 1 0 9.38 0 a4.69 4.69 0 1 0 -9.38 0zM335.6 469.76L332.95 469.76L332.95 489.55L335.6 489.55zM329.58 489.55 a4.69 4.69 0 1 0 9.38 0 a4.69 4.69 0 1 0 -9.38 0zM316.13 466.42L313.68 465.4L308.85 477.07L311.29 478.08zM305.38 477.58 a4.69 4.69 0 1 0 9.38 0 a4.69 4.69 0 1 0 -9.38 0zM299.42 455.88L297.55 454L287.41 464.14L289.28 466.02zM283.66 465.08 a4.69 4.69 0 1 0 9.38 0 a4.69 4.69 0 1 0 -9.38 0zM288.02 439.74L287.01 437.29L280.06 440.17L281.07 442.62zM275.88 441.4 a4.69 4.69 0 1 0 9.38 0 a4.69 4.69 0 1 0 -9.38 0zM283.66 420.48L283.66 417.83L273.46 417.83L273.46 420.48zM268.77 419.15 a4.69 4.69 0 1 0 9.38 0 a4.69 4.69 0 1 0 -9.38 0zM287.01 401.01L288.02 398.56L276.18 393.65L275.16 396.1zM270.98 394.88 a4.69 4.69 0 1 0 9.38 0 a4.69 4.69 0 1 0 -9.38 0zM297.55 384.3L299.42 382.43L284.06 367.07L282.19 368.94zM278.44 368.01 a4.69 4.69 0 1 0 9.38 0 a4.69 4.69 0 1 0 -9.38 0zM313.68 372.9L316.13 371.89L310.31 357.85L307.86 358.86zM304.4 358.35 a4.69 4.69 0 1 0 9.38 0 a4.69 4.69 0 1 0 -9.38 0zM332.95 368.54L335.6 368.54L335.6 354.13L332.95 354.13zM329.58 354.13 a4.69 4.69 0 1 0 9.38 0 a4.69 4.69 0 1 0 -9.38 0zM352.41 371.89L354.86 372.9L362.65 354.11L360.2 353.1zM356.73 353.6 a4.69 4.69 0 1 0 9.38 0 a4.69 4.69 0 1 0 -9.38 0zM369.12 382.43L370.99 384.3L385.57 369.73L383.69 367.86zM379.94 368.79 a4.69 4.69 0 1 0 9.38 0 a4.69 4.69 0 1 0 -9.38 0zM380.52 398.56L381.54 401.01L394.86 395.49L393.84 393.04zM389.66 394.27 a4.69 4.69 0 1 0 9.38 0 a4.69 4.69 0 1 0 -9.38 0zM283.64 419.15 a50.63 50.63 0 1 0 101.26 0 a50.63 50.63 0 1 0 -101.26 0z" fill="rgba(93, 85, 80, 1)"></path><path d="M362.44 377.09 A49.62656 49.62656 0 0 1 356.71 464.53M356.71 464.53 A101.25312 101.25312 0 0 0 362.44 377.09" fill="#4a4440" fill-rule="nonzero"></path><path d="M290.87 420.53 a10.13 10.13 0 1 0 20.26 0 a10.13 10.13 0 1 0 -20.26 0zM348.47 401.35 a10.13 10.13 0 1 0 20.26 0 a10.13 10.13 0 1 0 -20.26 0zM299.69 384.78 a5.06 5.06 0 1 0 10.12 0 a5.06 5.06 0 1 0 -10.12 0zM327.3 373.88 a5.06 5.06 0 1 0 10.12 0 a5.06 5.06 0 1 0 -10.12 0zM369.04 435.72 a6.08 6.08 0 1 0 12.16 0 a6.08 6.08 0 1 0 -12.16 0zM315.66 451.89 a10.13 10.13 0 1 0 20.26 0 a10.13 10.13 0 1 0 -20.26 0zM320.51 413.79 a7.09 7.09 0 1 0 14.18 0 a7.09 7.09 0 1 0 -14.18 0zM343.73 463.25 a3.54 3.54 0 1 0 7.08 0 a3.54 3.54 0 1 0 -7.08 0zM358.77 453.8 a4.05 4.05 0 1 0 8.1 0 a4.05 4.05 0 1 0 -8.1 0zM374.01 415.33 a2.03 2.03 0 1 0 4.06 0 a2.03 2.03 0 1 0 -4.06 0z" fill="#4a4440" fill-rule="nonzero"></path><path d="M608.66 613.3L608.66 615.29L614.93 615.29L614.93 613.3zM611.41 614.3 a3.52 3.52 0 1 0 7.04 0 a3.52 3.52 0 1 0 -7.04 0zM606.15 627.91L605.39 629.74L620.47 635.99L621.23 634.15zM617.33 635.07 a3.52 3.52 0 1 0 7.04 0 a3.52 3.52 0 1 0 -7.04 0zM598.25 640.43L596.84 641.84L603.09 648.09L604.5 646.69zM600.28 647.39 a3.52 3.52 0 1 0 7.04 0 a3.52 3.52 0 1 0 -7.04 0zM586.15 648.99L584.31 649.75L587.73 658L589.57 657.24zM585.13 657.62 a3.52 3.52 0 1 0 7.04 0 a3.52 3.52 0 1 0 -7.04 0zM571.7 652.25L569.71 652.25L569.71 659.12L571.7 659.12zM567.19 659.12 a3.52 3.52 0 1 0 7.04 0 a3.52 3.52 0 1 0 -7.04 0zM557.1 649.75L555.26 648.99L552.63 655.33L554.47 656.09zM550.03 655.71 a3.52 3.52 0 1 0 7.04 0 a3.52 3.52 0 1 0 -7.04 0zM544.57 641.84L543.16 640.43L533.98 649.62L535.38 651.03zM531.16 650.32 a3.52 3.52 0 1 0 7.04 0 a3.52 3.52 0 1 0 -7.04 0zM536.02 629.74L535.26 627.91L519.89 634.27L520.66 636.11zM516.75 635.19 a3.52 3.52 0 1 0 7.04 0 a3.52 3.52 0 1 0 -7.04 0zM532.75 615.29L532.75 613.3L519.15 613.3L519.15 615.29zM515.63 614.3 a3.52 3.52 0 1 0 7.04 0 a3.52 3.52 0 1 0 -7.04 0zM535.26 600.69L536.02 598.85L522.5 593.26L521.74 595.09zM518.6 594.17 a3.52 3.52 0 1 0 7.04 0 a3.52 3.52 0 1 0 -7.04 0zM543.16 588.16L544.57 586.76L536.39 578.57L534.98 579.98zM532.17 579.28 a3.52 3.52 0 1 0 7.04 0 a3.52 3.52 0 1 0 -7.04 0zM555.26 579.61L557.1 578.85L552.69 568.21L550.85 568.97zM548.25 568.59 a3.52 3.52 0 1 0 7.04 0 a3.52 3.52 0 1 0 -7.04 0zM569.71 576.34L571.7 576.34L571.7 567.02L569.71 567.02zM567.19 567.02 a3.52 3.52 0 1 0 7.04 0 a3.52 3.52 0 1 0 -7.04 0zM584.31 578.85L586.15 579.61L592.2 565L590.36 564.24zM587.76 564.62 a3.52 3.52 0 1 0 7.04 0 a3.52 3.52 0 1 0 -7.04 0zM596.84 586.76L598.25 588.16L601.82 584.59L600.41 583.18zM597.6 583.89 a3.52 3.52 0 1 0 7.04 0 a3.52 3.52 0 1 0 -7.04 0zM605.39 598.85L606.15 600.69L619.94 594.98L619.18 593.14zM616.04 594.06 a3.52 3.52 0 1 0 7.04 0 a3.52 3.52 0 1 0 -7.04 0zM532.74 614.3 a37.97 37.97 0 1 0 75.94 0 a37.97 37.97 0 1 0 -75.94 0z" fill="rgba(93, 85, 80, 1)"></path><path d="M567.68 576.45 A36.969919999999995 36.969919999999995 0 0 1 605.03 630.53M605.03 630.53 A75.93983999999999 75.93983999999999 0 0 0 567.68 576.45" fill="#4a4440" fill-rule="nonzero"></path><path d="M539.14 594.3 a2.66 2.66 0 1 0 5.32 0 a2.66 2.66 0 1 0 -5.32 0zM552.56 621.39 a7.59 7.59 0 1 0 15.18 0 a7.59 7.59 0 1 0 -15.18 0zM554.13 585.6 a7.59 7.59 0 1 0 15.18 0 a7.59 7.59 0 1 0 -15.18 0zM591.81 634.53 a4.94 4.94 0 1 0 9.88 0 a4.94 4.94 0 1 0 -9.88 0zM579.57 604.14 a7.59 7.59 0 1 0 15.18 0 a7.59 7.59 0 1 0 -15.18 0zM549.25 602.33 a2.66 2.66 0 1 0 5.32 0 a2.66 2.66 0 1 0 -5.32 0zM572.53 632.44 a5.32 5.32 0 1 0 10.64 0 a5.32 5.32 0 1 0 -10.64 0zM557.75 646.19 a4.94 4.94 0 1 0 9.88 0 a4.94 4.94 0 1 0 -9.88 0zM534.73 617.04 a5.32 5.32 0 1 0 10.64 0 a5.32 5.32 0 1 0 -10.64 0zM594.32 618.65 a1.52 1.52 0 1 0 3.04 0 a1.52 1.52 0 1 0 -3.04 0z" fill="#4a4440" fill-rule="nonzero"></path><path d="M162.61 313.43L162.61 316.08L184.95 316.08L184.95 313.43zM180.26 314.76 a4.69 4.69 0 1 0 9.38 0 a4.69 4.69 0 1 0 -9.38 0zM159.26 332.9L158.25 335.35L175.05 342.31L176.06 339.86zM170.86 341.08 a4.69 4.69 0 1 0 9.38 0 a4.69 4.69 0 1 0 -9.38 0zM148.72 349.61L146.85 351.48L154.43 359.06L156.3 357.19zM150.68 358.12 a4.69 4.69 0 1 0 9.38 0 a4.69 4.69 0 1 0 -9.38 0zM132.59 361.01L130.14 362.02L133.29 369.62L135.74 368.6zM129.82 369.11 a4.69 4.69 0 1 0 9.38 0 a4.69 4.69 0 1 0 -9.38 0zM113.32 365.37L110.67 365.37L110.67 389.77L113.32 389.77zM107.31 389.77 a4.69 4.69 0 1 0 9.38 0 a4.69 4.69 0 1 0 -9.38 0zM93.86 362.02L91.41 361.01L81.96 383.83L84.4 384.84zM78.49 384.33 a4.69 4.69 0 1 0 9.38 0 a4.69 4.69 0 1 0 -9.38 0zM77.15 351.48L75.28 349.61L65.79 359.1L67.66 360.97zM62.03 360.03 a4.69 4.69 0 1 0 9.38 0 a4.69 4.69 0 1 0 -9.38 0zM65.75 335.35L64.74 332.9L48.46 339.64L49.47 342.09zM44.27 340.87 a4.69 4.69 0 1 0 9.38 0 a4.69 4.69 0 1 0 -9.38 0zM61.39 316.08L61.39 313.43L53.74 313.43L53.74 316.08zM49.05 314.76 a4.69 4.69 0 1 0 9.38 0 a4.69 4.69 0 1 0 -9.38 0zM64.74 296.62L65.75 294.17L49.64 287.49L48.62 289.94zM44.44 288.72 a4.69 4.69 0 1 0 9.38 0 a4.69 4.69 0 1 0 -9.38 0zM75.28 279.91L77.15 278.03L62.66 263.55L60.79 265.42zM57.03 264.48 a4.69 4.69 0 1 0 9.38 0 a4.69 4.69 0 1 0 -9.38 0zM91.41 268.51L93.86 267.49L87.11 251.2L84.66 252.21zM81.19 251.7 a4.69 4.69 0 1 0 9.38 0 a4.69 4.69 0 1 0 -9.38 0zM110.67 264.15L113.32 264.15L113.32 253.43L110.67 253.43zM107.31 253.43 a4.69 4.69 0 1 0 9.38 0 a4.69 4.69 0 1 0 -9.38 0zM130.14 267.49L132.59 268.51L136.4 259.31L133.95 258.29zM130.49 258.8 a4.69 4.69 0 1 0 9.38 0 a4.69 4.69 0 1 0 -9.38 0zM146.85 278.03L148.72 279.91L159.24 269.39L157.37 267.51zM153.62 268.45 a4.69 4.69 0 1 0 9.38 0 a4.69 4.69 0 1 0 -9.38 0zM158.25 294.17L159.26 296.62L168.24 292.9L167.23 290.45zM163.05 291.67 a4.69 4.69 0 1 0 9.38 0 a4.69 4.69 0 1 0 -9.38 0zM61.37 314.76 a50.63 50.63 0 1 0 101.26 0 a50.63 50.63 0 1 0 -101.26 0z" fill="rgba(93, 85, 80, 1)"></path><path d="M63.97 298.75 A49.62656 49.62656 0 0 1 149.8 281.09M149.8 281.09 A101.25312 101.25312 0 0 0 63.97 298.75" fill="#4a4440" fill-rule="nonzero"></path><path d="M112.79 278.86 a10.13 10.13 0 1 0 20.26 0 a10.13 10.13 0 1 0 -20.26 0zM83.55 291.92 a10.13 10.13 0 1 0 20.26 0 a10.13 10.13 0 1 0 -20.26 0zM114.57 321.73 a10.13 10.13 0 1 0 20.26 0 a10.13 10.13 0 1 0 -20.26 0zM72.35 344.57 a3.04 3.04 0 1 0 6.08 0 a3.04 3.04 0 1 0 -6.08 0zM123.06 356.41 a5.57 5.57 0 1 0 11.14 0 a5.57 5.57 0 1 0 -11.14 0zM145.24 322.45 a6.08 6.08 0 1 0 12.16 0 a6.08 6.08 0 1 0 -12.16 0zM83.81 322.6 a10.13 10.13 0 1 0 20.26 0 a10.13 10.13 0 1 0 -20.26 0zM100.4 345.03 a4.56 4.56 0 1 0 9.12 0 a4.56 4.56 0 1 0 -9.12 0zM87.94 357.56 a2.53 2.53 0 1 0 5.06 0 a2.53 2.53 0 1 0 -5.06 0zM145.96 293.68 a5.57 5.57 0 1 0 11.14 0 a5.57 5.57 0 1 0 -11.14 0z" fill="#4a4440" fill-rule="nonzero"></path><path d="M570.28 77.79L570.28 80.11L578.96 80.11L578.96 77.79zM574.85 78.95 a4.11 4.11 0 1 0 8.22 0 a4.11 4.11 0 1 0 -8.22 0zM567.35 94.83L566.47 96.97L584.31 104.36L585.19 102.22zM580.64 103.29 a4.11 4.11 0 1 0 8.22 0 a4.11 4.11 0 1 0 -8.22 0zM558.13 109.44L556.49 111.08L562.2 116.8L563.84 115.16zM558.91 115.98 a4.11 4.11 0 1 0 8.22 0 a4.11 4.11 0 1 0 -8.22 0zM544.02 119.42L541.87 120.31L548.35 135.94L550.49 135.05zM545.31 135.5 a4.11 4.11 0 1 0 8.22 0 a4.11 4.11 0 1 0 -8.22 0zM527.16 123.24L524.84 123.24L524.84 142.33L527.16 142.33zM521.89 142.33 a4.11 4.11 0 1 0 8.22 0 a4.11 4.11 0 1 0 -8.22 0zM510.12 120.31L507.98 119.42L505.59 125.19L507.74 126.07zM502.55 125.63 a4.11 4.11 0 1 0 8.22 0 a4.11 4.11 0 1 0 -8.22 0zM495.51 111.08L493.87 109.44L482.62 120.7L484.26 122.33zM479.33 121.52 a4.11 4.11 0 1 0 8.22 0 a4.11 4.11 0 1 0 -8.22 0zM485.53 96.97L484.64 94.83L466.27 102.44L467.15 104.58zM462.6 103.51 a4.11 4.11 0 1 0 8.22 0 a4.11 4.11 0 1 0 -8.22 0zM481.72 80.11L481.72 77.79L468.17 77.79L468.17 80.11zM464.06 78.95 a4.11 4.11 0 1 0 8.22 0 a4.11 4.11 0 1 0 -8.22 0zM484.64 63.08L485.53 60.93L475.62 56.83L474.73 58.97zM471.06 57.9 a4.11 4.11 0 1 0 8.22 0 a4.11 4.11 0 1 0 -8.22 0zM493.87 48.46L495.51 46.82L483.13 34.44L481.49 36.08zM478.2 35.26 a4.11 4.11 0 1 0 8.22 0 a4.11 4.11 0 1 0 -8.22 0zM507.98 38.48L510.12 37.6L502.03 18.07L499.89 18.95zM496.85 18.51 a4.11 4.11 0 1 0 8.22 0 a4.11 4.11 0 1 0 -8.22 0zM524.84 34.67L527.16 34.67L527.16 26.83L524.84 26.83zM521.89 26.83 a4.11 4.11 0 1 0 8.22 0 a4.11 4.11 0 1 0 -8.22 0zM541.87 37.6L544.02 38.48L547.86 29.21L545.72 28.32zM542.68 28.76 a4.11 4.11 0 1 0 8.22 0 a4.11 4.11 0 1 0 -8.22 0zM556.49 46.82L558.13 48.46L565.27 41.32L563.63 39.68zM560.34 40.5 a4.11 4.11 0 1 0 8.22 0 a4.11 4.11 0 1 0 -8.22 0zM566.47 60.93L567.35 63.08L579.9 57.88L579.01 55.74zM575.35 56.81 a4.11 4.11 0 1 0 8.22 0 a4.11 4.11 0 1 0 -8.22 0zM481.7 78.95 a44.3 44.3 0 1 0 88.6 0 a44.3 44.3 0 1 0 -88.6 0z" fill="rgba(93, 85, 80, 1)"></path><path d="M558.63 48.99 A43.29824000000001 43.29824000000001 0 0 1 535.72 122.17M535.72 122.17 A88.59648000000001 88.59648000000001 0 0 0 558.63 48.99" fill="#4a4440" fill-rule="nonzero"></path><path d="M483.79 83.3 a8.86 8.86 0 1 0 17.72 0 a8.86 8.86 0 1 0 -17.72 0zM509.7 43.16 a7.09 7.09 0 1 0 14.18 0 a7.09 7.09 0 1 0 -14.18 0zM511.02 71.69 a8.86 8.86 0 1 0 17.72 0 a8.86 8.86 0 1 0 -17.72 0zM515.23 94.39 a4.87 4.87 0 1 0 9.74 0 a4.87 4.87 0 1 0 -9.74 0zM532.88 44.51 a5.76 5.76 0 1 0 11.52 0 a5.76 5.76 0 1 0 -11.52 0zM543.76 69.85 a8.86 8.86 0 1 0 17.72 0 a8.86 8.86 0 1 0 -17.72 0zM540.79 106.19 a8.42 8.42 0 1 0 16.84 0 a8.42 8.42 0 1 0 -16.84 0zM519.19 111.96 a3.99 3.99 0 1 0 7.98 0 a3.99 3.99 0 1 0 -7.98 0zM535.12 83 a2.21 2.21 0 1 0 4.42 0 a2.21 2.21 0 1 0 -4.42 0zM501.93 104.1 a3.54 3.54 0 1 0 7.08 0 a3.54 3.54 0 1 0 -7.08 0z" fill="#4a4440" fill-rule="nonzero"></path><path d="M783.91 57.58L783.91 59.24L795.53 59.24L795.53 57.58zM792.6 58.41 a2.93 2.93 0 1 0 5.86 0 a2.93 2.93 0 1 0 -5.86 0zM781.82 69.75L781.19 71.28L788.8 74.44L789.43 72.91zM786.19 73.67 a2.93 2.93 0 1 0 5.86 0 a2.93 2.93 0 1 0 -5.86 0zM775.23 80.19L774.06 81.36L784.55 91.85L785.72 90.68zM782.2 91.27 a2.93 2.93 0 1 0 5.86 0 a2.93 2.93 0 1 0 -5.86 0zM765.15 87.32L763.62 87.95L768.12 98.82L769.65 98.18zM765.95 98.5 a2.93 2.93 0 1 0 5.86 0 a2.93 2.93 0 1 0 -5.86 0zM753.11 90.04L751.45 90.04L751.45 102.93L753.11 102.93zM749.35 102.93 a2.93 2.93 0 1 0 5.86 0 a2.93 2.93 0 1 0 -5.86 0zM740.94 87.95L739.41 87.32L733.93 100.55L735.46 101.18zM731.77 100.87 a2.93 2.93 0 1 0 5.86 0 a2.93 2.93 0 1 0 -5.86 0zM730.5 81.36L729.33 80.19L720.77 88.75L721.94 89.92zM718.43 89.34 a2.93 2.93 0 1 0 5.86 0 a2.93 2.93 0 1 0 -5.86 0zM723.37 71.28L722.74 69.75L718.04 71.7L718.67 73.23zM715.42 72.47 a2.93 2.93 0 1 0 5.86 0 a2.93 2.93 0 1 0 -5.86 0zM720.65 59.24L720.65 57.58L710.14 57.58L710.14 59.24zM707.21 58.41 a2.93 2.93 0 1 0 5.86 0 a2.93 2.93 0 1 0 -5.86 0zM722.74 47.07L723.37 45.54L712.07 40.86L711.43 42.39zM708.82 41.62 a2.93 2.93 0 1 0 5.86 0 a2.93 2.93 0 1 0 -5.86 0zM729.33 36.63L730.5 35.46L727.52 32.48L726.34 33.65zM724 33.06 a2.93 2.93 0 1 0 5.86 0 a2.93 2.93 0 1 0 -5.86 0zM739.41 29.51L740.94 28.87L738.04 21.86L736.51 22.49zM734.34 22.18 a2.93 2.93 0 1 0 5.86 0 a2.93 2.93 0 1 0 -5.86 0zM751.45 26.78L753.11 26.78L753.11 11.58L751.45 11.58zM749.35 11.58 a2.93 2.93 0 1 0 5.86 0 a2.93 2.93 0 1 0 -5.86 0zM763.62 28.87L765.15 29.51L766.78 25.56L765.25 24.93zM763.09 25.24 a2.93 2.93 0 1 0 5.86 0 a2.93 2.93 0 1 0 -5.86 0zM774.06 35.46L775.23 36.63L778.03 33.83L776.86 32.66zM774.52 33.25 a2.93 2.93 0 1 0 5.86 0 a2.93 2.93 0 1 0 -5.86 0zM781.19 45.54L781.82 47.07L795.44 41.43L794.8 39.9zM792.19 40.67 a2.93 2.93 0 1 0 5.86 0 a2.93 2.93 0 1 0 -5.86 0zM720.64 58.41 a31.64 31.64 0 1 0 63.28 0 a31.64 31.64 0 1 0 -63.28 0z" fill="rgba(93, 85, 80, 1)"></path><path d="M783.61 53.95 A30.6416 30.6416 0 0 1 740.54 87.8M740.54 87.8 A63.2832 63.2832 0 0 0 783.61 53.95" fill="#4a4440" fill-rule="nonzero"></path><path d="M751.83 31.02 a3.8 3.8 0 1 0 7.6 0 a3.8 3.8 0 1 0 -7.6 0zM740.91 65.56 a6.33 6.33 0 1 0 12.66 0 a6.33 6.33 0 1 0 -12.66 0zM765.84 71.61 a6.33 6.33 0 1 0 12.66 0 a6.33 6.33 0 1 0 -12.66 0zM727.44 43.89 a6.33 6.33 0 1 0 12.66 0 a6.33 6.33 0 1 0 -12.66 0zM770.62 49.35 a5.7 5.7 0 1 0 11.4 0 a5.7 5.7 0 1 0 -11.4 0zM721.51 59.12 a4.43 4.43 0 1 0 8.86 0 a4.43 4.43 0 1 0 -8.86 0zM756.27 43.17 a2.21 2.21 0 1 0 4.42 0 a2.21 2.21 0 1 0 -4.42 0zM758.12 77.56 a1.27 1.27 0 1 0 2.54 0 a1.27 1.27 0 1 0 -2.54 0zM745.93 39.97 a1.27 1.27 0 1 0 2.54 0 a1.27 1.27 0 1 0 -2.54 0zM767.05 38.04 a1.58 1.58 0 1 0 3.16 0 a1.58 1.58 0 1 0 -3.16 0z" fill="#4a4440" fill-rule="nonzero"></path><path d="M170.32 633.64L170.32 634.97L177.92 634.97L177.92 633.64zM175.57 634.3 a2.35 2.35 0 1 0 4.7 0 a2.35 2.35 0 1 0 -4.7 0zM168.65 643.37L168.14 644.6L176.2 647.94L176.7 646.71zM174.1 647.32 a2.35 2.35 0 1 0 4.7 0 a2.35 2.35 0 1 0 -4.7 0zM163.38 651.73L162.44 652.66L170.78 661L171.71 660.06zM168.9 660.53 a2.35 2.35 0 1 0 4.7 0 a2.35 2.35 0 1 0 -4.7 0zM155.31 657.43L154.09 657.93L158.84 669.42L160.07 668.91zM157.11 669.17 a2.35 2.35 0 1 0 4.7 0 a2.35 2.35 0 1 0 -4.7 0zM145.68 659.61L144.35 659.61L144.35 669.12L145.68 669.12zM142.67 669.12 a2.35 2.35 0 1 0 4.7 0 a2.35 2.35 0 1 0 -4.7 0zM135.94 657.93L134.72 657.43L130.99 666.43L132.22 666.93zM129.25 666.68 a2.35 2.35 0 1 0 4.7 0 a2.35 2.35 0 1 0 -4.7 0zM127.59 652.66L126.65 651.73L124.36 654.03L125.29 654.96zM122.47 654.49 a2.35 2.35 0 1 0 4.7 0 a2.35 2.35 0 1 0 -4.7 0zM121.89 644.6L121.38 643.37L114 646.43L114.51 647.66zM111.91 647.04 a2.35 2.35 0 1 0 4.7 0 a2.35 2.35 0 1 0 -4.7 0zM119.71 634.97L119.71 633.64L111.54 633.64L111.54 634.97zM109.19 634.3 a2.35 2.35 0 1 0 4.7 0 a2.35 2.35 0 1 0 -4.7 0zM121.38 625.23L121.89 624.01L115.89 621.52L115.38 622.74zM113.28 622.13 a2.35 2.35 0 1 0 4.7 0 a2.35 2.35 0 1 0 -4.7 0zM126.65 616.88L127.59 615.94L121.68 610.03L120.74 610.97zM118.86 610.5 a2.35 2.35 0 1 0 4.7 0 a2.35 2.35 0 1 0 -4.7 0zM134.72 611.18L135.94 610.67L134.39 606.93L133.17 607.44zM131.43 607.18 a2.35 2.35 0 1 0 4.7 0 a2.35 2.35 0 1 0 -4.7 0zM144.35 609L145.68 609L145.68 597.53L144.35 597.53zM142.67 597.53 a2.35 2.35 0 1 0 4.7 0 a2.35 2.35 0 1 0 -4.7 0zM154.09 610.67L155.31 611.18L158.04 604.59L156.82 604.08zM155.08 604.34 a2.35 2.35 0 1 0 4.7 0 a2.35 2.35 0 1 0 -4.7 0zM162.44 615.94L163.38 616.88L169.23 611.03L168.29 610.09zM166.41 610.56 a2.35 2.35 0 1 0 4.7 0 a2.35 2.35 0 1 0 -4.7 0zM168.14 624.01L168.65 625.23L172.81 623.51L172.31 622.28zM170.21 622.89 a2.35 2.35 0 1 0 4.7 0 a2.35 2.35 0 1 0 -4.7 0zM119.71 634.3 a25.31 25.31 0 1 0 50.62 0 a25.31 25.31 0 1 0 -50.62 0z" fill="rgba(93, 85, 80, 1)"></path><path d="M169.72 639.82 A24.31328 24.31328 0 0 1 127.93 652.98M127.93 652.98 A50.62656 50.62656 0 0 0 169.72 639.82" fill="#4a4440" fill-rule="nonzero"></path><path d="M124.1 640.48 a5.06 5.06 0 1 0 10.12 0 a5.06 5.06 0 1 0 -10.12 0zM130.11 653.06 a2.78 2.78 0 1 0 5.56 0 a2.78 2.78 0 1 0 -5.56 0zM122.96 623.42 a4.3 4.3 0 1 0 8.6 0 a4.3 4.3 0 1 0 -8.6 0zM148.77 633.05 a5.06 5.06 0 1 0 10.12 0 a5.06 5.06 0 1 0 -10.12 0zM152.74 611.86 a1.01 1.01 0 1 0 2.02 0 a1.01 1.01 0 1 0 -2.02 0zM142.44 610.5 a1.27 1.27 0 1 0 2.54 0 a1.27 1.27 0 1 0 -2.54 0zM161.49 642.73 a3.54 3.54 0 1 0 7.08 0 a3.54 3.54 0 1 0 -7.08 0zM158.32 651.5 a1.52 1.52 0 1 0 3.04 0 a1.52 1.52 0 1 0 -3.04 0zM162.79 626.91 a3.04 3.04 0 1 0 6.08 0 a3.04 3.04 0 1 0 -6.08 0zM139.6 647.5 a5.06 5.06 0 1 0 10.12 0 a5.06 5.06 0 1 0 -10.12 0z" fill="#4a4440" fill-rule="nonzero"></path></g><defs><mask id="SvgjsMask1009"><rect width="1024" height="678" fill="#ffffff"></rect></mask></defs></svg>